FILE "Warau Salesman (1993)(Sega)(JP).img" BINARY
  TRACK 01 MODE1/2352
    INDEX 01 00:00:00
  TRACK 02 AUDIO
    PREGAP 00:02:00
    INDEX 01 33:22:42
  TRACK 03 AUDIO
    INDEX 00 33:29:18
    INDEX 01 33:31:17
